HIERARCHY
ROOT root
{
	OFFSET 0.000000 0.000000 0.000000
	CHANNELS 6 Xposition Yposition Zposition Zrotation Yrotation Xrotation
	JOINT lhip
	{
		OFFSET 0.058581 -0.082280 -0.017664
		CHANNELS 3 Zrotation Yrotation Xrotation
		JOINT lknee
		{
			OFFSET 0.043451 -0.386469 0.008037
			CHANNELS 3 Zrotation Yrotation Xrotation
			JOINT lankle
			{
				OFFSET -0.014790 -0.426874 -0.037428
				CHANNELS 3 Zrotation Yrotation Xrotation
				JOINT ltoe
				{
					OFFSET 0.041054 -0.060286 0.122042
					CHANNELS 3 Zrotation Yrotation Xrotation
					End Site
					{
						OFFSET 0.000000 0.000000 0.000000
					}
				}
			}
		}
	}
	JOINT rhip
	{
		OFFSET -0.060310 -0.090513 -0.013543
		CHANNELS 3 Zrotation Yrotation Xrotation
		JOINT rknee
		{
			OFFSET -0.043257 -0.383688 -0.004843
			CHANNELS 3 Zrotation Yrotation Xrotation
			JOINT rankle
			{
				OFFSET 0.019056 -0.420046 -0.034562
				CHANNELS 3 Zrotation Yrotation Xrotation
				JOINT rtoe
				{
					OFFSET -0.034840 -0.062106 0.130323
					CHANNELS 3 Zrotation Yrotation Xrotation
					End Site
					{
						OFFSET 0.000000 0.000000 0.000000
					}
				}
			}
		}
	}
	JOINT lowerback
	{
		OFFSET 0.004439 0.124404 -0.038385
		CHANNELS 3 Zrotation Yrotation Xrotation
		JOINT upperback
		{
			OFFSET 0.004488 0.137956 0.026820
			CHANNELS 3 Zrotation Yrotation Xrotation
			JOINT chest
			{
				OFFSET -0.002265 0.056032 0.002855
				CHANNELS 3 Zrotation Yrotation Xrotation
				JOINT lowerneck
				{
					OFFSET -0.013390 0.211636 -0.033468
					CHANNELS 3 Zrotation Yrotation Xrotation
					JOINT upperneck
					{
						OFFSET 0.010113 0.088937 0.050410
						CHANNELS 3 Zrotation Yrotation Xrotation
						End Site
						{
							OFFSET 0.000000 0.000000 0.000000
						}
					}
				}
				JOINT lclavicle
				{
					OFFSET 0.071702 0.114000 -0.018898
					CHANNELS 3 Zrotation Yrotation Xrotation
					JOINT lshoulder
					{
						OFFSET 0.122921 0.045205 -0.019046
						CHANNELS 3 Zrotation Yrotation Xrotation
						JOINT lelbow
						{
							OFFSET 0.255332 -0.015649 -0.022946
							CHANNELS 3 Zrotation Yrotation Xrotation
							JOINT lwrist
							{
								OFFSET 0.265709 0.012698 -0.007375
								CHANNELS 3 Zrotation Yrotation Xrotation
								End Site
								{
									OFFSET 0.000000 0.000000 0.000000
								}
							}
						}
					}
				}
				JOINT rclavicle
				{
					OFFSET -0.082954 0.112472 -0.023707
					CHANNELS 3 Zrotation Yrotation Xrotation
					JOINT rshoulder
					{
						OFFSET -0.113228 0.046853 -0.008472
						CHANNELS 3 Zrotation Yrotation Xrotation
						JOINT relbow
						{
							OFFSET -0.260127 -0.014369 -0.031269
							CHANNELS 3 Zrotation Yrotation Xrotation
							JOINT rwrist
							{
								OFFSET -0.269108 0.006794 -0.006027
								CHANNELS 3 Zrotation Yrotation Xrotation
								End Site
								{
									OFFSET 0.000000 0.000000 0.000000
								}
							}
						}
					}
				}
			}
		}
	}
}
MOTION
Frames: 16
Frame Time: 0.033333
-1.960561 0.310850 1.015573 87.949125 1.124839 90.882692 3.994128 2.085271 5.987210 -3.338165 -5.560601 0.117548 2.882311 9.761980 -12.059802 0.000000 -0.000000 0.000000 -4.885067 -2.729704 -4.410442 2.096841 -1.950316 16.508825 4.624716 -5.931514 -12.137319 0.000000 -0.000000 0.000000 -1.551163 0.718147 1.576357 1.214538 -0.789870 -1.110552 1.244045 -0.916268 1.526311 4.456183 6.190140 -10.023292 0.181856 0.536073 2.834371 -26.283791 5.249033 1.801946 -58.070910 -7.193913 8.051419 8.127483 -26.332061 5.385535 -3.231654 -3.247797 -6.736110 28.353098 -0.121129 2.676671 58.799907 5.864216 13.520256 -13.557776 22.006770 -5.685039 6.713559 1.439985 -6.846749 
-1.960874 0.310830 1.015609 87.814716 1.206856 90.846315 4.059383 2.237025 6.009358 -3.301610 -5.532867 0.172912 2.933621 9.724418 -12.064022 0.000000 -0.000000 0.000000 -4.788232 -2.662668 -4.366602 2.119059 -1.787903 16.438825 4.595714 -5.936797 -12.243398 0.000000 -0.000000 0.000000 -1.474872 0.661954 1.584404 1.237617 -0.800438 -1.050476 1.271968 -0.859899 1.557253 4.428708 6.069690 -10.071646 0.069054 0.481758 2.848596 -26.149336 5.184533 1.797901 -58.196205 -7.210105 8.052712 7.983754 -26.352971 5.628583 -3.244783 -2.978534 -6.714723 28.276747 -0.003311 2.663690 58.754154 5.972794 13.512510 -13.554457 22.394893 -5.608171 6.646547 1.302657 -6.768875 
-1.961749 0.310842 1.015543 87.589175 1.221222 90.879758 4.037819 2.237403 5.965242 -3.301253 -5.510952 0.109748 2.942983 9.881657 -12.031926 0.000000 -0.000000 0.000000 -4.774129 -2.503952 -4.556524 2.127871 -1.757255 16.523467 4.609429 -5.933825 -12.207142 0.000000 -0.000000 0.000000 -1.509919 0.574398 1.681614 1.245510 -0.700151 -1.162875 1.334538 -0.829136 1.533301 4.294044 6.186444 -9.938783 0.070718 0.552545 2.988838 -26.005838 5.154741 1.784047 -58.341727 -7.168697 8.089755 7.960939 -26.237535 5.620330 -3.156291 -2.940148 -6.753007 28.154975 0.046995 2.692013 58.820668 6.093071 13.578613 -13.718084 22.677971 -5.677174 6.541154 1.372763 -6.952196 
-1.962673 0.311113 1.015605 87.158159 1.227968 90.837153 3.944576 2.245111 6.096389 -3.236020 -5.396593 -0.054188 2.989409 10.023521 -11.914734 0.000000 -0.000000 0.000000 -4.845734 -2.228587 -4.726734 2.182790 -1.749306 16.600771 4.747771 -5.853889 -12.034537 0.000000 -0.000000 0.000000 -1.459717 0.486493 1.925211 1.165104 -0.497796 -1.295072 1.303128 -0.709398 1.526707 4.058160 6.682474 -9.902111 0.093088 0.789536 3.325038 -25.863508 5.183538 1.670908 -58.366708 -7.191299 8.133371 7.879137 -26.086638 5.648619 -3.067684 -3.165523 -6.629959 28.224067 0.061290 2.608201 58.666743 6.348539 13.675444 -13.567934 22.655064 -5.721197 6.488545 1.566049 -7.005897 
-1.962593 0.311201 1.015594 87.080502 1.275166 90.818421 3.981931 2.291586 6.096979 -3.252220 -5.326402 -0.017607 3.030557 10.129708 -12.016378 0.000000 -0.000000 0.000000 -4.775589 -2.236526 -4.698315 2.191814 -1.585053 16.626119 4.654319 -5.872547 -12.177974 0.000000 -0.000000 0.000000 -1.560722 0.798556 1.713809 1.308367 -0.267740 -1.166431 1.472537 -1.079412 1.591303 3.912331 6.485865 -9.676360 0.014083 0.806075 3.292690 -26.045522 4.870367 1.927955 -58.410839 -7.257078 8.103392 8.069524 -25.965237 5.387937 -3.136351 -2.944364 -6.655404 28.065507 0.107604 2.657622 58.568405 6.309867 13.571780 -13.679310 22.835121 -5.829824 6.479503 1.469856 -7.096933 
-1.963054 0.311392 1.015644 86.875103 1.233968 90.810279 3.928458 2.397258 6.147822 -3.272172 -5.287274 -0.125891 3.006985 10.157773 -12.003448 0.000000 -0.000000 0.000000 -4.870442 -2.208888 -4.797380 2.218929 -1.577784 16.675108 4.696867 -5.717813 -12.163748 0.000000 -0.000000 0.000000 -1.367636 0.508302 1.865201 1.151597 -0.414659 -1.270740 1.238425 -0.717538 1.541311 3.998819 6.612712 -9.768375 -0.100285 0.826719 3.407328 -25.961997 5.124783 1.722482 -58.218639 -7.099489 8.084666 7.998036 -26.022653 5.467392 -3.006417 -3.117090 -6.553276 28.253458 0.174681 2.678386 58.596118 6.396048 13.668177 -13.763838 22.715129 -5.840430 6.252091 1.594398 -6.971578 
-1.963303 0.311593 1.015684 86.845197 1.268528 90.756195 3.966843 2.468636 6.126460 -3.294021 -5.345217 0.022627 3.056946 10.093559 -12.101102 0.000000 -0.000000 0.000000 -4.851020 -2.283366 -4.794707 2.209808 -1.561645 16.727091 4.633566 -5.710956 -12.116690 0.000000 -0.000000 0.000000 -1.389153 0.585801 1.923189 1.207199 -0.342588 -1.301950 1.305945 -0.822469 1.563705 3.833974 6.782085 -9.518343 -0.257832 1.118070 3.547683 -26.028405 5.097731 1.742731 -58.228022 -7.122601 8.060851 8.032878 -25.770188 5.548635 -2.964043 -3.088816 -6.467070 28.262078 0.104985 2.642324 58.430023 6.521787 13.607926 -13.610478 22.583945 -5.854947 6.243584 1.622738 -6.983278 
-1.963446 0.311785 1.015744 86.827856 1.247947 90.771350 3.992336 2.598763 6.100190 -3.355701 -5.352536 0.032133 3.026791 9.967751 -12.149629 0.000000 -0.000000 0.000000 -4.874038 -2.320164 -4.865322 2.218787 -1.464384 16.768775 4.734626 -5.650415 -12.154817 0.000000 -0.000000 0.000000 -1.323415 0.473508 1.903249 1.186581 -0.410250 -1.325865 1.193428 -0.755141 1.572074 3.846419 6.915778 -9.514122 -0.375794 1.138015 3.637841 -26.175343 5.333403 1.555613 -57.997930 -7.054642 7.991824 7.936683 -25.674140 5.541813 -2.860381 -3.029641 -6.276630 28.481134 0.011307 2.654529 58.276593 6.575399 13.632555 -13.615648 22.509696 -5.998369 6.024395 1.582656 -6.848557 
-1.963720 0.312061 1.015847 86.875265 1.280433 90.799306 3.986094 2.481894 6.133914 -3.343830 -5.419437 -0.102868 3.038242 10.128348 -12.096488 0.000000 -0.000000 0.000000 -4.887556 -2.285089 -4.827109 2.293180 -1.459490 16.629989 4.660742 -5.785418 -12.071848 0.000000 -0.000000 0.000000 -1.239876 0.420319 1.889624 1.135629 -0.388857 -1.333970 1.150644 -0.738637 1.606648 3.786994 7.109406 -9.694671 -0.323300 1.194428 3.811773 -26.282291 5.445488 1.411039 -57.861202 -7.034367 8.019625 7.901926 -25.720922 5.567600 -2.921270 -3.027164 -6.170631 28.629309 -0.084244 2.557823 58.110423 6.452986 13.670483 -13.558546 22.500638 -6.033231 6.101367 1.502365 -6.724803 
-1.964049 0.312343 1.015833 86.816860 1.248118 90.808533 3.934147 2.551684 6.133283 -3.351133 -5.464113 -0.187189 3.091799 10.180847 -11.983732 0.000000 -0.000000 0.000000 -4.927809 -2.156931 -4.848373 2.253167 -1.486547 16.537557 4.806016 -5.789276 -11.941465 0.000000 -0.000000 0.000000 -1.231670 0.394816 1.974401 1.125003 -0.277553 -1.454522 1.130912 -0.769891 1.513289 3.765181 7.105075 -9.564388 -0.350817 1.091749 4.201147 -26.345161 5.631661 1.296637 -57.734467 -6.921081 8.048011 7.685992 -25.686197 5.636101 -2.845295 -3.021635 -6.045470 28.645598 -0.268489 2.583163 58.106039 6.338157 13.676710 -13.551497 22.294718 -6.047865 5.855710 1.412355 -6.566559 
-1.964412 0.312735 1.015841 87.078696 1.334638 90.832622 4.021207 2.395660 5.971579 -3.354194 -5.473789 -0.060512 2.998624 10.039667 -11.964146 0.000000 -0.000000 0.000000 -4.881262 -2.330833 -4.782087 2.339144 -1.533051 16.378661 4.742808 -5.940280 -11.897301 0.000000 -0.000000 0.000000 -1.332281 0.813559 1.819213 1.265798 -0.133343 -1.479238 1.294724 -1.144254 1.535893 3.847094 6.891373 -9.140394 -0.287698 0.962184 4.283867 -26.484221 5.147559 1.862981 -57.955590 -7.167729 8.088865 8.219271 -25.394027 5.191401 -2.778914 -3.141129 -6.139637 28.604587 -0.442295 2.495381 57.872075 5.976193 13.560739 -13.509033 22.323534 -6.143045 5.988846 1.377616 -6.837503 
-1.964685 0.312968 1.015748 87.280099 1.303428 90.853663 3.973127 2.317112 5.897009 -3.344828 -5.655519 -0.024357 3.114344 10.144396 -12.002041 0.000000 -0.000000 0.000000 -4.945728 -2.405765 -4.775079 2.341818 -1.636029 16.404369 4.686417 -5.901056 -11.984802 0.000000 -0.000000 0.000000 -1.173908 0.444011 2.012050 1.128223 -0.408143 -1.689216 1.123418 -0.783402 1.404762 3.733035 7.015700 -8.661709 -0.456517 1.228033 4.323720 -26.311518 5.501659 1.857729 -57.958796 -6.992092 7.973338 8.114442 -25.549422 5.452576 -3.037652 -2.795372 -6.278889 28.685312 -0.543214 2.738394 58.023760 5.921127 13.507563 -13.593921 22.114083 -5.943996 6.061348 1.209351 -6.630369 
-1.964848 0.312957 1.015842 87.375391 1.259718 90.868473 3.982649 2.277182 5.866762 -3.421524 -5.621979 -0.030446 3.098315 10.021121 -12.176973 0.000000 -0.000000 0.000000 -4.998480 -2.474386 -4.763185 2.351046 -1.722241 16.353605 4.689119 -5.927675 -11.924562 0.000000 -0.000000 0.000000 -1.161454 0.376177 2.056884 1.096226 -0.562140 -1.715594 1.028892 -0.667060 1.337504 3.727749 7.071313 -8.528480 -0.342236 1.202899 4.335773 -26.321424 5.667660 1.873817 -57.916396 -6.940016 7.905823 8.206214 -25.531139 5.288695 -3.089944 -2.971952 -6.347527 28.828154 -0.614967 2.810069 58.057241 5.874977 13.459748 -13.641253 21.835106 -6.011957 6.126931 1.307646 -6.715098 
-1.965364 0.313092 1.015895 87.482027 1.264901 90.931206 3.967336 2.226701 5.709271 -3.407998 -5.709555 0.012914 3.149398 10.033140 -11.974750 0.000000 -0.000000 0.000000 -4.991255 -2.417375 -4.815159 2.362084 -1.681893 16.288299 4.740916 -6.081087 -11.808682 0.000000 -0.000000 0.000000 -1.159796 0.354455 2.001076 1.114135 -0.534204 -1.699307 1.026380 -0.668322 1.406999 3.775091 6.923622 -8.681349 -0.439930 1.025432 4.313009 -26.448812 5.775432 1.675944 -57.835857 -6.995546 7.953112 8.094965 -25.352064 5.412841 -3.142861 -2.843721 -6.267985 28.938890 -0.658433 2.769474 58.013100 5.901640 13.499776 -13.661303 21.465119 -6.086229 6.012695 1.141692 -6.571559 
-1.965726 0.313114 1.015980 87.548231 1.286963 90.972009 4.005625 2.211924 5.623213 -3.419484 -5.742952 0.038283 3.060780 9.992018 -12.116366 0.000000 -0.000000 0.000000 -4.952629 -2.402194 -4.840444 2.353264 -1.740906 16.234809 4.682106 -6.099289 -11.812135 0.000000 -0.000000 0.000000 -1.125388 0.335041 2.105613 1.094722 -0.520012 -1.834655 1.001236 -0.678840 1.455231 3.822109 6.900305 -8.769607 -0.419055 0.936693 4.425214 -26.475801 5.932536 1.564441 -57.845613 -6.985533 7.995526 8.054251 -25.332417 5.548200 -3.025385 -2.971118 -6.273039 28.936112 -0.768171 2.647240 58.126763 5.794077 13.540798 -13.657369 21.198932 -6.047675 5.843169 1.292368 -6.693201 
-1.966303 0.313228 1.015929 87.541030 1.291780 91.007950 3.985246 2.166990 5.514100 -3.396051 -5.669086 0.093573 3.109611 9.968878 -12.038389 0.000000 -0.000000 0.000000 -4.957501 -2.482193 -4.973434 2.366041 -1.668390 16.318067 4.717463 -6.119756 -11.783697 0.000000 -0.000000 0.000000 -1.095424 0.347478 2.120980 1.098504 -0.511022 -1.742870 0.979178 -0.668360 1.491303 3.878690 6.876062 -9.165402 -0.519569 0.776950 4.636487 -26.521706 6.080381 1.418498 -57.854750 -6.978707 8.069083 7.983170 -25.269150 5.480412 -2.830531 -2.994071 -6.197927 29.079653 -0.761367 2.526802 58.024640 5.858167 13.634570 -13.596603 20.910384 -6.193296 5.776175 1.258022 -6.561778 
